G04 Layer_Physical_Order=2*
G04 Layer_Color=16711680*
%FSLAX42Y42*%
%MOMM*%
G71*
G01*
G75*
%ADD10C,2.00*%
%ADD11C,0.80*%
%ADD12R,1.50X1.50*%
%ADD13C,1.50*%
%ADD14C,1.40*%
%ADD15C,4.20*%
G36*
X10900Y4100D02*
X4900D01*
Y10100D01*
X10900D01*
Y4100D01*
D02*
G37*
%LPC*%
G36*
X5400Y4991D02*
X5339Y4986D01*
X5279Y4972D01*
X5222Y4949D01*
X5170Y4916D01*
X5123Y4877D01*
X5084Y4830D01*
X5051Y4778D01*
X5028Y4721D01*
X5014Y4661D01*
X5009Y4600D01*
X5014Y4539D01*
X5028Y4479D01*
X5051Y4422D01*
X5084Y4370D01*
X5123Y4323D01*
X5170Y4284D01*
X5222Y4251D01*
X5279Y4228D01*
X5339Y4214D01*
X5400Y4209D01*
X5461Y4214D01*
X5521Y4228D01*
X5578Y4251D01*
X5630Y4284D01*
X5677Y4323D01*
X5716Y4370D01*
X5749Y4422D01*
X5772Y4479D01*
X5786Y4539D01*
X5791Y4600D01*
X5786Y4661D01*
X5772Y4721D01*
X5749Y4778D01*
X5716Y4830D01*
X5677Y4877D01*
X5630Y4916D01*
X5578Y4949D01*
X5521Y4972D01*
X5461Y4986D01*
X5400Y4991D01*
D02*
G37*
G36*
X10400Y9991D02*
X10339Y9986D01*
X10279Y9972D01*
X10222Y9949D01*
X10170Y9916D01*
X10123Y9877D01*
X10084Y9830D01*
X10051Y9778D01*
X10028Y9721D01*
X10014Y9661D01*
X10009Y9600D01*
X10014Y9539D01*
X10028Y9479D01*
X10051Y9422D01*
X10084Y9370D01*
X10110Y9339D01*
X10103Y9328D01*
X10090Y9331D01*
X10046Y9335D01*
X9000D01*
X8956Y9331D01*
X8913Y9321D01*
X8884Y9309D01*
X8745D01*
Y9170D01*
X8733Y9141D01*
X8723Y9098D01*
X8719Y9054D01*
X8723Y9010D01*
X8733Y8967D01*
X8745Y8938D01*
Y8799D01*
X8884D01*
X8897Y8794D01*
X8898Y8781D01*
X8858Y8759D01*
X8819Y8727D01*
X8787Y8688D01*
X8763Y8644D01*
X8749Y8596D01*
X8744Y8546D01*
X8749Y8496D01*
X8763Y8448D01*
X8765Y8445D01*
X8750Y8420D01*
X8733Y8379D01*
X8723Y8336D01*
X8719Y8292D01*
X8723Y8248D01*
X8733Y8205D01*
X8750Y8164D01*
X8765Y8139D01*
X8763Y8136D01*
X8749Y8088D01*
X8744Y8038D01*
X8749Y7988D01*
X8763Y7940D01*
X8779Y7911D01*
X8763Y7882D01*
X8749Y7834D01*
X8744Y7784D01*
X8749Y7734D01*
X8763Y7686D01*
X8779Y7657D01*
X8763Y7628D01*
X8749Y7580D01*
X8744Y7530D01*
X8749Y7480D01*
X8763Y7432D01*
X8779Y7403D01*
X8763Y7374D01*
X8749Y7326D01*
X8744Y7276D01*
X8749Y7226D01*
X8763Y7178D01*
X8779Y7149D01*
X8763Y7120D01*
X8749Y7072D01*
X8744Y7022D01*
X8749Y6972D01*
X8763Y6924D01*
X8779Y6895D01*
X8763Y6866D01*
X8749Y6818D01*
X8744Y6768D01*
X8749Y6718D01*
X8763Y6670D01*
X8779Y6641D01*
X8763Y6612D01*
X8749Y6564D01*
X8744Y6514D01*
X8749Y6464D01*
X8763Y6416D01*
X8779Y6387D01*
X8763Y6358D01*
X8749Y6310D01*
X8744Y6260D01*
X8749Y6210D01*
X8763Y6162D01*
X8779Y6133D01*
X8763Y6104D01*
X8749Y6056D01*
X8744Y6006D01*
X8749Y5956D01*
X8763Y5908D01*
X8765Y5905D01*
X8750Y5880D01*
X8733Y5839D01*
X8723Y5796D01*
X8719Y5752D01*
X8723Y5708D01*
X8733Y5665D01*
X8750Y5624D01*
X8765Y5599D01*
X8763Y5596D01*
X8749Y5548D01*
X8744Y5498D01*
X8749Y5448D01*
X8763Y5400D01*
X8787Y5356D01*
X8819Y5317D01*
X8858Y5285D01*
X8902Y5261D01*
X8950Y5247D01*
X9000Y5242D01*
X9050Y5247D01*
X9098Y5261D01*
X9108Y5267D01*
X9119Y5260D01*
Y5216D01*
X9103Y5200D01*
X8200D01*
X8156Y5196D01*
X8113Y5186D01*
X8101Y5181D01*
X7616D01*
X7559Y5238D01*
X7562Y5250D01*
X7598Y5261D01*
X7642Y5285D01*
X7681Y5317D01*
X7713Y5356D01*
X7737Y5400D01*
X7751Y5448D01*
X7756Y5498D01*
X7751Y5548D01*
X7737Y5596D01*
X7721Y5625D01*
X7737Y5654D01*
X7751Y5702D01*
X7756Y5752D01*
X7751Y5802D01*
X7737Y5850D01*
X7721Y5879D01*
X7737Y5908D01*
X7751Y5956D01*
X7756Y6006D01*
X7751Y6056D01*
X7737Y6104D01*
X7721Y6133D01*
X7737Y6162D01*
X7751Y6210D01*
X7756Y6260D01*
X7751Y6310D01*
X7737Y6358D01*
X7721Y6387D01*
X7737Y6416D01*
X7751Y6464D01*
X7756Y6514D01*
X7751Y6564D01*
X7737Y6612D01*
X7721Y6641D01*
X7737Y6670D01*
X7751Y6718D01*
X7756Y6768D01*
X7751Y6818D01*
X7737Y6866D01*
X7721Y6895D01*
X7737Y6924D01*
X7751Y6972D01*
X7756Y7022D01*
X7751Y7072D01*
X7737Y7120D01*
X7721Y7149D01*
X7737Y7178D01*
X7751Y7226D01*
X7756Y7276D01*
X7754Y7300D01*
X7762Y7309D01*
X7778D01*
X7979Y7108D01*
Y5798D01*
X7968Y5777D01*
X7954Y5730D01*
X7949Y5681D01*
X7954Y5632D01*
X7968Y5585D01*
X7991Y5541D01*
X8022Y5503D01*
X8060Y5472D01*
X8104Y5449D01*
X8151Y5435D01*
X8200Y5430D01*
X8249Y5435D01*
X8296Y5449D01*
X8340Y5472D01*
X8378Y5503D01*
X8409Y5541D01*
X8432Y5585D01*
X8446Y5632D01*
X8451Y5681D01*
X8446Y5730D01*
X8432Y5777D01*
X8421Y5798D01*
Y7200D01*
X8421Y7200D01*
X8417Y7243D01*
X8404Y7285D01*
X8384Y7323D01*
X8356Y7356D01*
X8356Y7356D01*
X8026Y7686D01*
X7993Y7714D01*
X7955Y7734D01*
X7913Y7747D01*
X7870Y7751D01*
X7762D01*
X7754Y7760D01*
X7756Y7784D01*
X7751Y7834D01*
X7737Y7882D01*
X7721Y7911D01*
X7737Y7940D01*
X7751Y7988D01*
X7756Y8038D01*
X7751Y8088D01*
X7737Y8136D01*
X7713Y8180D01*
X7681Y8219D01*
X7642Y8251D01*
X7599Y8274D01*
X7601Y8292D01*
X7599Y8310D01*
X7642Y8333D01*
X7681Y8365D01*
X7713Y8404D01*
X7737Y8448D01*
X7751Y8496D01*
X7756Y8546D01*
X7751Y8596D01*
X7737Y8644D01*
X7721Y8673D01*
X7737Y8702D01*
X7751Y8750D01*
X7756Y8800D01*
X7755Y8813D01*
Y9309D01*
X7245D01*
Y9275D01*
X6327D01*
X6298Y9291D01*
X6250Y9305D01*
X6200Y9310D01*
X6150Y9305D01*
X6102Y9291D01*
X6058Y9267D01*
X6019Y9235D01*
X5987Y9196D01*
X5963Y9152D01*
X5949Y9104D01*
X5944Y9054D01*
X5949Y9004D01*
X5963Y8956D01*
X5979Y8927D01*
X5963Y8898D01*
X5949Y8850D01*
X5944Y8800D01*
X5949Y8750D01*
X5963Y8702D01*
X5987Y8658D01*
X6019Y8619D01*
X6058Y8587D01*
X6061Y8585D01*
X6058Y8573D01*
X5892D01*
X5848Y8569D01*
X5805Y8559D01*
X5764Y8542D01*
X5727Y8519D01*
X5693Y8491D01*
X5101Y7899D01*
X5073Y7865D01*
X5050Y7828D01*
X5033Y7787D01*
X5023Y7744D01*
X5019Y7700D01*
Y5700D01*
X5023Y5656D01*
X5033Y5613D01*
X5050Y5572D01*
X5073Y5535D01*
X5101Y5501D01*
X6301Y4301D01*
X6335Y4273D01*
X6372Y4250D01*
X6413Y4233D01*
X6456Y4223D01*
X6500Y4219D01*
X9500D01*
X9544Y4223D01*
X9587Y4233D01*
X9628Y4250D01*
X9665Y4273D01*
X9699Y4301D01*
X9996Y4599D01*
X10009Y4594D01*
X10014Y4539D01*
X10028Y4479D01*
X10051Y4422D01*
X10084Y4370D01*
X10123Y4323D01*
X10170Y4284D01*
X10222Y4251D01*
X10279Y4228D01*
X10339Y4214D01*
X10400Y4209D01*
X10461Y4214D01*
X10521Y4228D01*
X10578Y4251D01*
X10630Y4284D01*
X10677Y4323D01*
X10716Y4370D01*
X10749Y4422D01*
X10772Y4479D01*
X10786Y4539D01*
X10791Y4600D01*
X10786Y4661D01*
X10772Y4721D01*
X10749Y4778D01*
X10716Y4830D01*
X10677Y4877D01*
X10630Y4916D01*
X10578Y4949D01*
X10521Y4972D01*
X10461Y4986D01*
X10400Y4991D01*
X10339Y4986D01*
X10292Y4975D01*
X10280Y4985D01*
X10281Y5000D01*
Y7100D01*
X10277Y7144D01*
X10267Y7187D01*
X10250Y7228D01*
X10227Y7265D01*
X10199Y7299D01*
X10199Y7299D01*
X10098Y7399D01*
X10103Y7412D01*
X10136Y7415D01*
X10179Y7425D01*
X10220Y7442D01*
X10257Y7465D01*
X10291Y7493D01*
X10399Y7601D01*
X10427Y7635D01*
X10450Y7672D01*
X10467Y7713D01*
X10477Y7756D01*
X10481Y7800D01*
Y8900D01*
X10477Y8944D01*
X10467Y8987D01*
X10450Y9028D01*
X10427Y9065D01*
X10399Y9099D01*
X10283Y9214D01*
X10290Y9225D01*
X10339Y9214D01*
X10400Y9209D01*
X10461Y9214D01*
X10521Y9228D01*
X10578Y9251D01*
X10630Y9284D01*
X10677Y9323D01*
X10716Y9370D01*
X10749Y9422D01*
X10772Y9479D01*
X10786Y9539D01*
X10791Y9600D01*
X10786Y9661D01*
X10772Y9721D01*
X10749Y9778D01*
X10716Y9830D01*
X10677Y9877D01*
X10630Y9916D01*
X10578Y9949D01*
X10521Y9972D01*
X10461Y9986D01*
X10400Y9991D01*
D02*
G37*
G36*
X5400D02*
X5339Y9986D01*
X5279Y9972D01*
X5222Y9949D01*
X5170Y9916D01*
X5123Y9877D01*
X5084Y9830D01*
X5051Y9778D01*
X5028Y9721D01*
X5014Y9661D01*
X5009Y9600D01*
X5014Y9539D01*
X5028Y9479D01*
X5051Y9422D01*
X5084Y9370D01*
X5123Y9323D01*
X5170Y9284D01*
X5222Y9251D01*
X5279Y9228D01*
X5339Y9214D01*
X5400Y9209D01*
X5461Y9214D01*
X5521Y9228D01*
X5578Y9251D01*
X5630Y9284D01*
X5677Y9323D01*
X5716Y9370D01*
X5749Y9422D01*
X5772Y9479D01*
X5786Y9539D01*
X5791Y9600D01*
X5786Y9661D01*
X5772Y9721D01*
X5749Y9778D01*
X5716Y9830D01*
X5677Y9877D01*
X5630Y9916D01*
X5578Y9949D01*
X5521Y9972D01*
X5461Y9986D01*
X5400Y9991D01*
D02*
G37*
%LPD*%
G36*
X9273Y7435D02*
X9301Y7401D01*
X9719Y6984D01*
Y5116D01*
X9692Y5089D01*
X9680Y5094D01*
X9681Y5100D01*
Y5600D01*
X9677Y5644D01*
X9667Y5687D01*
X9650Y5728D01*
X9627Y5765D01*
X9599Y5799D01*
X9447Y5951D01*
X9413Y5979D01*
X9376Y6002D01*
X9335Y6019D01*
X9292Y6029D01*
X9254Y6032D01*
X9251Y6056D01*
X9237Y6104D01*
X9221Y6133D01*
X9237Y6162D01*
X9251Y6210D01*
X9256Y6260D01*
X9251Y6310D01*
X9237Y6358D01*
X9221Y6387D01*
X9237Y6416D01*
X9251Y6464D01*
X9256Y6514D01*
X9251Y6564D01*
X9237Y6612D01*
X9221Y6641D01*
X9237Y6670D01*
X9251Y6718D01*
X9256Y6768D01*
X9251Y6818D01*
X9237Y6866D01*
X9221Y6895D01*
X9237Y6924D01*
X9251Y6972D01*
X9256Y7022D01*
X9251Y7072D01*
X9237Y7120D01*
X9221Y7149D01*
X9237Y7178D01*
X9251Y7226D01*
X9256Y7276D01*
X9251Y7326D01*
X9237Y7374D01*
X9221Y7403D01*
X9237Y7432D01*
X9244Y7457D01*
X9258Y7459D01*
X9273Y7435D01*
D02*
G37*
G36*
X5601Y5901D02*
X6082Y5420D01*
X6116Y5392D01*
X6153Y5369D01*
X6194Y5352D01*
X6237Y5342D01*
X6281Y5338D01*
X6727D01*
X6733Y5313D01*
X6750Y5272D01*
X6773Y5235D01*
X6801Y5201D01*
X7210Y4793D01*
X7205Y4781D01*
X6616D01*
X5581Y5816D01*
Y5907D01*
X5593Y5911D01*
X5601Y5901D01*
D02*
G37*
G36*
X6244Y6244D02*
X6244Y6244D01*
X6277Y6216D01*
X6315Y6196D01*
X6357Y6183D01*
X6400Y6179D01*
X6852D01*
X6860Y6172D01*
X6904Y6149D01*
X6951Y6135D01*
X7000Y6130D01*
X7049Y6135D01*
X7096Y6149D01*
X7140Y6172D01*
X7178Y6203D01*
X7209Y6241D01*
X7232Y6285D01*
X7234Y6292D01*
X7247Y6289D01*
X7244Y6260D01*
X7249Y6210D01*
X7263Y6162D01*
X7279Y6133D01*
X7263Y6104D01*
X7249Y6056D01*
X7244Y6006D01*
X7249Y5956D01*
X7263Y5908D01*
X7279Y5879D01*
X7263Y5850D01*
X7249Y5802D01*
X7246Y5776D01*
X7234Y5773D01*
X7227Y5784D01*
X7199Y5818D01*
X7165Y5846D01*
X7128Y5869D01*
X7087Y5886D01*
X7044Y5896D01*
X7000Y5900D01*
X6397D01*
X6081Y6216D01*
Y6390D01*
X6093Y6395D01*
X6244Y6244D01*
D02*
G37*
G36*
X7246Y8570D02*
X7244Y8546D01*
X7249Y8496D01*
X7263Y8448D01*
X7287Y8404D01*
X7319Y8365D01*
X7358Y8333D01*
X7401Y8310D01*
X7399Y8292D01*
X7401Y8274D01*
X7358Y8251D01*
X7319Y8219D01*
X7287Y8180D01*
X7263Y8136D01*
X7249Y8088D01*
X7244Y8038D01*
X7249Y7988D01*
X7263Y7940D01*
X7279Y7911D01*
X7263Y7882D01*
X7249Y7834D01*
X7244Y7784D01*
X7246Y7760D01*
X7238Y7751D01*
X6730D01*
X6687Y7747D01*
X6645Y7734D01*
X6607Y7714D01*
X6574Y7686D01*
X6574Y7686D01*
X6487Y7599D01*
X6474Y7603D01*
X6467Y7633D01*
X6450Y7674D01*
X6427Y7711D01*
X6399Y7745D01*
X6365Y7773D01*
X6328Y7796D01*
X6300Y7808D01*
X6298Y7826D01*
X6288Y7851D01*
X6272Y7872D01*
X6251Y7888D01*
X6226Y7898D01*
X6200Y7901D01*
X6174Y7898D01*
X6149Y7888D01*
X6128Y7872D01*
X6112Y7851D01*
X6102Y7827D01*
X5946D01*
X5902Y7823D01*
X5859Y7813D01*
X5818Y7796D01*
X5800Y7785D01*
X5792Y7795D01*
X6008Y8011D01*
X6200D01*
X6244Y8015D01*
X6287Y8025D01*
X6316Y8037D01*
X6455D01*
Y8176D01*
X6467Y8205D01*
X6477Y8248D01*
X6481Y8292D01*
X6477Y8336D01*
X6467Y8379D01*
X6455Y8408D01*
Y8547D01*
X6316D01*
X6303Y8552D01*
X6302Y8565D01*
X6327Y8579D01*
X7238D01*
X7246Y8570D01*
D02*
G37*
G36*
X9800Y8689D02*
X9758Y8667D01*
X9719Y8635D01*
X9687Y8596D01*
X9663Y8552D01*
X9649Y8504D01*
X9644Y8454D01*
X9649Y8404D01*
X9663Y8356D01*
X9679Y8327D01*
X9663Y8298D01*
X9653Y8263D01*
X9638Y8259D01*
X9407Y8491D01*
X9373Y8519D01*
X9336Y8542D01*
X9295Y8559D01*
X9254Y8569D01*
X9251Y8596D01*
X9237Y8644D01*
X9213Y8688D01*
X9181Y8727D01*
X9142Y8759D01*
X9139Y8761D01*
X9142Y8773D01*
X9800D01*
Y8689D01*
D02*
G37*
G36*
X7246Y7046D02*
X7244Y7022D01*
X7249Y6972D01*
X7263Y6924D01*
X7279Y6895D01*
X7263Y6866D01*
X7249Y6818D01*
X7244Y6768D01*
X7249Y6718D01*
X7263Y6670D01*
X7279Y6641D01*
X7263Y6612D01*
X7249Y6564D01*
X7244Y6514D01*
X7248Y6467D01*
X7236Y6465D01*
X7232Y6477D01*
X7221Y6498D01*
Y7055D01*
X7238D01*
X7246Y7046D01*
D02*
G37*
G36*
X6788Y7257D02*
X6783Y7243D01*
X6779Y7200D01*
Y6621D01*
X6492D01*
X6421Y6692D01*
Y6783D01*
X6455D01*
Y7079D01*
X6500D01*
X6543Y7083D01*
X6585Y7096D01*
X6623Y7116D01*
X6656Y7144D01*
X6777Y7264D01*
X6788Y7257D01*
D02*
G37*
D10*
X9000Y8292D02*
X9208D01*
X9500Y8000D01*
Y7600D02*
Y8000D01*
Y7600D02*
X10000Y7100D01*
X10000D01*
Y5000D02*
Y7100D01*
X9500Y4500D02*
X10000Y5000D01*
X6500Y4500D02*
X9500D01*
X5300Y5700D02*
X6500Y4500D01*
X5300Y5700D02*
Y7700D01*
X5892Y8292D01*
X6200D01*
X10092Y7692D02*
X10200Y7800D01*
Y8900D01*
X10046Y9054D02*
X10200Y8900D01*
X5800Y6100D02*
X6281Y5619D01*
X7000D01*
X8200Y4919D02*
X9219D01*
X9400Y5100D01*
Y5600D01*
X9248Y5752D02*
X9400Y5600D01*
X9000Y5752D02*
X9248D01*
X8181Y4900D02*
X8200Y4919D01*
X7500Y4900D02*
X8181D01*
X7000Y5400D02*
X7500Y4900D01*
X7000Y5400D02*
Y5619D01*
X5800Y6100D02*
Y7400D01*
X5946Y7546D01*
X6200D01*
Y7800D02*
X6500D01*
X6800Y8100D01*
Y8300D01*
X7492D01*
X7500Y8292D01*
X6554Y8546D02*
X6800Y8300D01*
X6200Y8546D02*
X6554D01*
X9900Y7692D02*
X10092D01*
X9000Y9054D02*
X10046D01*
X7500Y8292D02*
X7892D01*
X8400Y8800D01*
X9000D01*
X9892Y8700D02*
X9900Y8708D01*
X9400Y8700D02*
X9892D01*
X9300Y8800D02*
X9400Y8700D01*
X9000Y8800D02*
X9300D01*
D11*
X7870Y7530D02*
X8200Y7200D01*
X7500Y7530D02*
X7870D01*
X8200Y5681D02*
Y7200D01*
X6730Y7530D02*
X7500D01*
X6500Y7300D02*
X6730Y7530D01*
X6208Y7300D02*
X6500D01*
X6200Y7292D02*
X6208Y7300D01*
X7076Y7276D02*
X7500D01*
X7000Y7200D02*
X7076Y7276D01*
X7000Y6381D02*
Y7200D01*
X6981Y6400D02*
X7000Y6381D01*
X6400Y6400D02*
X6981D01*
X6400D02*
Y6400D01*
X6200Y6600D02*
X6400Y6400D01*
X6200Y6600D02*
Y7038D01*
Y8800D02*
X7500D01*
X6200Y9054D02*
X7500D01*
D12*
X9900Y8708D02*
D03*
X6200Y7038D02*
D03*
X7500Y9054D02*
D03*
X9000D02*
D03*
X6200Y8292D02*
D03*
D13*
X9900Y8454D02*
D03*
Y8200D02*
D03*
Y7946D02*
D03*
Y7692D02*
D03*
X6200Y7292D02*
D03*
Y7546D02*
D03*
Y7800D02*
D03*
X7500Y8800D02*
D03*
Y8546D02*
D03*
Y8292D02*
D03*
Y8038D02*
D03*
Y7784D02*
D03*
Y7530D02*
D03*
Y7276D02*
D03*
Y7022D02*
D03*
Y6768D02*
D03*
Y6514D02*
D03*
Y6260D02*
D03*
Y6006D02*
D03*
Y5752D02*
D03*
Y5498D02*
D03*
X9000Y8800D02*
D03*
Y8546D02*
D03*
Y8292D02*
D03*
Y8038D02*
D03*
Y7784D02*
D03*
Y7530D02*
D03*
Y7276D02*
D03*
Y7022D02*
D03*
Y6768D02*
D03*
Y6514D02*
D03*
Y6260D02*
D03*
Y6006D02*
D03*
Y5752D02*
D03*
Y5498D02*
D03*
X6200Y8546D02*
D03*
Y8800D02*
D03*
Y9054D02*
D03*
D14*
X8200Y4919D02*
D03*
Y5681D02*
D03*
X7000Y5619D02*
D03*
Y6381D02*
D03*
D15*
X5400Y4600D02*
D03*
Y9600D02*
D03*
X10400Y4600D02*
D03*
Y9600D02*
D03*
M02*
