G04 Layer_Physical_Order=1*
G04 Layer_Color=255*
%FSLAX42Y42*%
%MOMM*%
G71*
G01*
G75*
%ADD10R,1.50X1.50*%
%ADD11C,1.50*%
%ADD12C,1.40*%
%ADD13C,4.20*%
D10*
X9900Y8708D02*
D03*
X6200Y7038D02*
D03*
X7500Y9054D02*
D03*
X9000D02*
D03*
X6200Y8292D02*
D03*
D11*
X9900Y8454D02*
D03*
Y8200D02*
D03*
Y7946D02*
D03*
Y7692D02*
D03*
X6200Y7292D02*
D03*
Y7546D02*
D03*
Y7800D02*
D03*
X7500Y8800D02*
D03*
Y8546D02*
D03*
Y8292D02*
D03*
Y8038D02*
D03*
Y7784D02*
D03*
Y7530D02*
D03*
Y7276D02*
D03*
Y7022D02*
D03*
Y6768D02*
D03*
Y6514D02*
D03*
Y6260D02*
D03*
Y6006D02*
D03*
Y5752D02*
D03*
Y5498D02*
D03*
X9000Y8800D02*
D03*
Y8546D02*
D03*
Y8292D02*
D03*
Y8038D02*
D03*
Y7784D02*
D03*
Y7530D02*
D03*
Y7276D02*
D03*
Y7022D02*
D03*
Y6768D02*
D03*
Y6514D02*
D03*
Y6260D02*
D03*
Y6006D02*
D03*
Y5752D02*
D03*
Y5498D02*
D03*
X6200Y8546D02*
D03*
Y8800D02*
D03*
Y9054D02*
D03*
D12*
X8200Y4919D02*
D03*
Y5681D02*
D03*
X7000Y5619D02*
D03*
Y6381D02*
D03*
D13*
X5400Y4600D02*
D03*
Y9600D02*
D03*
X10400Y4600D02*
D03*
Y9600D02*
D03*
M02*
