M48
;Layer_Color=9474304
;FILE_FORMAT=4:2
METRIC,LZ
;TYPE=PLATED
T1F00S00C0.85
T2F00S00C0.90
T3F00S00C4.20
%
T01
X0082Y004919
Y005681
X007Y005619
Y006381
T02
X009Y005498
Y005752
Y006006
Y00626
Y006514
Y006768
Y007022
Y007276
Y00753
Y007784
X0099Y007692
X0075Y007784
Y00753
Y007276
Y007022
Y006768
Y006514
Y00626
Y006006
Y005752
Y005498
X0062Y007038
Y007292
Y007546
Y0078
Y008292
Y008546
Y0088
Y009054
X0075
Y0088
Y008546
Y008292
Y008038
X009
Y008292
Y008546
Y0088
Y009054
X0099Y008708
Y008454
Y0082
Y007946
T03
X0104Y0046
X0054
Y0096
X0104
M30
