M48
;Layer_Color=9474304
;FILE_FORMAT=4:2
METRIC,LZ
;TYPE=PLATED
T1F00S00C0.85
T2F00S00C0.90
T3F00S00C3.00
%
T01
X004619Y0051
X005381
X0064Y005481
Y004719
T02
X0159Y004838
Y005092
Y005346
Y0056
Y005854
X0159Y006738
Y006992
Y007246
Y0075
X0148Y007622
Y007876
Y007368
Y007114
Y00686
Y006606
Y006352
Y006098
Y005844
X0133
Y006098
Y006352
Y006606
Y00686
Y007114
Y007368
Y007622
Y007876
X011654Y0049
X0114
X011146
X010892
X0059Y005692
Y005946
Y0062
Y006454
Y006708
Y006962
Y007216
Y00747
Y007724
X0044Y007708
Y007454
Y0072
Y006946
Y006692
Y006438
Y006184
Y00593
Y005676
Y007962
Y008216
Y00847
Y008724
Y008978
Y009232
X0059Y009248
Y008994
Y00874
Y008486
Y008232
Y007978
X007192Y0109
X007446
X0077
X007954
X0133Y0094
Y009146
Y008892
Y008638
Y008384
Y00813
X0148
Y008384
Y008638
Y008892
Y009146
Y0094
X0159Y009438
Y009692
Y009946
Y0102
X0159Y0088
Y008546
Y008292
Y008038
T03
X0165Y0043
X0095Y0049
X0038Y0043
X0037Y0109
X0121
X0165
M30
