G04 Layer_Physical_Order=2*
G04 Layer_Color=16711680*
%FSLAX42Y42*%
%MOMM*%
G71*
G01*
G75*
%ADD10C,0.40*%
%ADD11C,1.00*%
%ADD12R,1.50X1.50*%
%ADD13C,1.50*%
%ADD14R,1.50X1.50*%
%ADD15C,1.00*%
%ADD16C,1.40*%
%ADD17C,3.00*%
G36*
X17000Y3900D02*
X3300D01*
Y11300D01*
X17000D01*
Y3900D01*
D02*
G37*
%LPC*%
G36*
X9500Y5161D02*
X9449Y5156D01*
X9400Y5141D01*
X9355Y5117D01*
X9315Y5085D01*
X9283Y5045D01*
X9259Y5000D01*
X9244Y4951D01*
X9239Y4900D01*
X9244Y4849D01*
X9259Y4800D01*
X9283Y4755D01*
X9315Y4715D01*
X9355Y4683D01*
X9400Y4659D01*
X9449Y4644D01*
X9500Y4639D01*
X9551Y4644D01*
X9600Y4659D01*
X9645Y4683D01*
X9685Y4715D01*
X9717Y4755D01*
X9741Y4800D01*
X9756Y4849D01*
X9761Y4900D01*
X9756Y4951D01*
X9741Y5000D01*
X9717Y5045D01*
X9685Y5085D01*
X9645Y5117D01*
X9600Y5141D01*
X9551Y5156D01*
X9500Y5161D01*
D02*
G37*
G36*
X16500Y4561D02*
X16449Y4556D01*
X16400Y4541D01*
X16355Y4517D01*
X16315Y4485D01*
X16283Y4445D01*
X16259Y4400D01*
X16244Y4351D01*
X16239Y4300D01*
X16244Y4249D01*
X16259Y4200D01*
X16283Y4155D01*
X16315Y4115D01*
X16355Y4083D01*
X16400Y4059D01*
X16449Y4044D01*
X16500Y4039D01*
X16551Y4044D01*
X16600Y4059D01*
X16645Y4083D01*
X16685Y4115D01*
X16717Y4155D01*
X16741Y4200D01*
X16756Y4249D01*
X16761Y4300D01*
X16756Y4351D01*
X16741Y4400D01*
X16717Y4445D01*
X16685Y4485D01*
X16645Y4517D01*
X16600Y4541D01*
X16551Y4556D01*
X16500Y4561D01*
D02*
G37*
G36*
X8700Y5111D02*
X7200D01*
X7171Y5107D01*
X7145Y5096D01*
X7122Y5078D01*
X7104Y5055D01*
X7093Y5029D01*
X7089Y5000D01*
Y4700D01*
X7093Y4671D01*
X7104Y4645D01*
X7122Y4622D01*
X7145Y4604D01*
X7171Y4593D01*
X7200Y4589D01*
X8700D01*
X8729Y4593D01*
X8755Y4604D01*
X8778Y4622D01*
X8796Y4645D01*
X8807Y4671D01*
X8811Y4700D01*
Y5000D01*
X8807Y5029D01*
X8796Y5055D01*
X8778Y5078D01*
X8755Y5096D01*
X8729Y5107D01*
X8700Y5111D01*
D02*
G37*
G36*
X16000Y6725D02*
X15913D01*
Y6638D01*
X15926Y6640D01*
X15951Y6650D01*
X15972Y6666D01*
X15988Y6687D01*
X15998Y6712D01*
X16000Y6725D01*
D02*
G37*
G36*
X15887D02*
X15800D01*
X15802Y6712D01*
X15812Y6687D01*
X15828Y6666D01*
X15849Y6650D01*
X15874Y6640D01*
X15887Y6638D01*
Y6725D01*
D02*
G37*
G36*
X15887Y5954D02*
X15800D01*
Y5867D01*
X15887D01*
Y5954D01*
D02*
G37*
G36*
X16000D02*
X15913D01*
Y5867D01*
X16000D01*
Y5954D01*
D02*
G37*
G36*
X4585Y9417D02*
X4215D01*
Y9363D01*
X3932D01*
X3932Y9363D01*
X3898Y9359D01*
X3866Y9346D01*
X3839Y9325D01*
X3407Y8893D01*
X3386Y8866D01*
X3373Y8834D01*
X3369Y8800D01*
X3369Y8800D01*
Y5300D01*
X3369Y5300D01*
X3373Y5266D01*
X3386Y5234D01*
X3407Y5207D01*
X4507Y4107D01*
X4534Y4086D01*
X4566Y4073D01*
X4600Y4069D01*
X4600Y4069D01*
X13900D01*
X13900Y4069D01*
X13934Y4073D01*
X13966Y4086D01*
X13993Y4107D01*
X14293Y4407D01*
X14314Y4434D01*
X14327Y4466D01*
X14331Y4500D01*
X14331Y4500D01*
Y4669D01*
X15400D01*
X15400Y4669D01*
X15434Y4673D01*
X15466Y4686D01*
X15492Y4707D01*
X15768D01*
X15769Y4707D01*
X15797Y4683D01*
X15829Y4666D01*
X15864Y4656D01*
X15900Y4652D01*
X15936Y4656D01*
X15971Y4666D01*
X16003Y4683D01*
X16031Y4707D01*
X16055Y4735D01*
X16072Y4767D01*
X16082Y4802D01*
X16086Y4838D01*
X16082Y4874D01*
X16072Y4909D01*
X16055Y4941D01*
X16035Y4965D01*
X16055Y4989D01*
X16072Y5021D01*
X16082Y5056D01*
X16086Y5092D01*
X16082Y5128D01*
X16072Y5163D01*
X16055Y5195D01*
X16035Y5219D01*
X16055Y5243D01*
X16072Y5275D01*
X16082Y5310D01*
X16086Y5346D01*
X16082Y5382D01*
X16072Y5417D01*
X16055Y5449D01*
X16035Y5473D01*
X16055Y5497D01*
X16072Y5529D01*
X16082Y5564D01*
X16086Y5600D01*
X16082Y5636D01*
X16072Y5671D01*
X16055Y5703D01*
X16031Y5731D01*
X16003Y5755D01*
X16000Y5756D01*
Y5841D01*
X15900D01*
X15800D01*
Y5756D01*
X15797Y5755D01*
X15769Y5731D01*
X15745Y5703D01*
X15728Y5671D01*
X15718Y5636D01*
X15714Y5600D01*
X15718Y5564D01*
X15728Y5529D01*
X15745Y5497D01*
X15765Y5473D01*
X15745Y5449D01*
X15728Y5417D01*
X15718Y5382D01*
X15714Y5346D01*
X15718Y5310D01*
X15728Y5275D01*
X15745Y5243D01*
X15765Y5219D01*
X15745Y5195D01*
X15728Y5163D01*
X15718Y5128D01*
X15714Y5092D01*
X15718Y5056D01*
X15728Y5021D01*
X15745Y4989D01*
X15752Y4981D01*
X15747Y4969D01*
X15438D01*
X15438Y4969D01*
X15404Y4965D01*
X15372Y4952D01*
X15346Y4931D01*
X14325D01*
X14323Y4934D01*
Y5138D01*
X14354Y5169D01*
X14600D01*
X14600Y5169D01*
X14634Y5173D01*
X14666Y5186D01*
X14693Y5207D01*
X14893Y5407D01*
X14893Y5407D01*
X14914Y5434D01*
X14927Y5466D01*
X14931Y5500D01*
Y5659D01*
X14985D01*
Y6029D01*
X14888D01*
X14882Y6040D01*
X14888Y6047D01*
X14898Y6072D01*
X14900Y6085D01*
X14800D01*
X14700D01*
X14702Y6072D01*
X14712Y6047D01*
X14718Y6040D01*
X14712Y6029D01*
X14615D01*
Y5659D01*
X14669D01*
Y5554D01*
X14546Y5431D01*
X14300D01*
X14300Y5431D01*
X14266Y5427D01*
X14234Y5414D01*
X14207Y5393D01*
X14207Y5393D01*
X14099Y5285D01*
X14078Y5258D01*
X14065Y5226D01*
X14061Y5192D01*
X14061Y5192D01*
Y4900D01*
X14061Y4900D01*
X14065Y4866D01*
X14069Y4858D01*
Y4800D01*
Y4554D01*
X13846Y4331D01*
X4654D01*
X3631Y5354D01*
Y8746D01*
X3986Y9101D01*
X4215D01*
Y9047D01*
X4312D01*
X4318Y9036D01*
X4312Y9029D01*
X4302Y9004D01*
X4300Y8991D01*
X4400D01*
X4500D01*
X4498Y9004D01*
X4488Y9029D01*
X4482Y9036D01*
X4488Y9047D01*
X4585D01*
Y9417D01*
D02*
G37*
G36*
X10600Y11211D02*
X9100D01*
X9071Y11207D01*
X9045Y11196D01*
X9022Y11178D01*
X9004Y11155D01*
X8993Y11129D01*
X8989Y11100D01*
Y10800D01*
X8993Y10771D01*
X9004Y10745D01*
X9022Y10722D01*
X9045Y10704D01*
X9071Y10693D01*
X9100Y10689D01*
X10600D01*
X10629Y10693D01*
X10655Y10704D01*
X10678Y10722D01*
X10696Y10745D01*
X10707Y10771D01*
X10711Y10800D01*
Y11100D01*
X10707Y11129D01*
X10696Y11155D01*
X10678Y11178D01*
X10655Y11196D01*
X10629Y11207D01*
X10600Y11211D01*
D02*
G37*
G36*
X12100Y11161D02*
X12049Y11156D01*
X12000Y11141D01*
X11955Y11117D01*
X11915Y11085D01*
X11883Y11045D01*
X11859Y11000D01*
X11844Y10951D01*
X11839Y10900D01*
X11844Y10849D01*
X11859Y10800D01*
X11883Y10755D01*
X11915Y10715D01*
X11955Y10683D01*
X12000Y10659D01*
X12049Y10644D01*
X12100Y10639D01*
X12151Y10644D01*
X12200Y10659D01*
X12245Y10683D01*
X12285Y10715D01*
X12317Y10755D01*
X12341Y10800D01*
X12356Y10849D01*
X12361Y10900D01*
X12356Y10951D01*
X12341Y11000D01*
X12317Y11045D01*
X12285Y11085D01*
X12245Y11117D01*
X12200Y11141D01*
X12151Y11156D01*
X12100Y11161D01*
D02*
G37*
G36*
X16500D02*
X16449Y11156D01*
X16400Y11141D01*
X16355Y11117D01*
X16315Y11085D01*
X16283Y11045D01*
X16259Y11000D01*
X16244Y10951D01*
X16239Y10900D01*
X16244Y10849D01*
X16259Y10800D01*
X16283Y10755D01*
X16315Y10715D01*
X16355Y10683D01*
X16400Y10659D01*
X16449Y10644D01*
X16500Y10639D01*
X16551Y10644D01*
X16600Y10659D01*
X16645Y10683D01*
X16685Y10715D01*
X16717Y10755D01*
X16741Y10800D01*
X16756Y10849D01*
X16761Y10900D01*
X16756Y10951D01*
X16741Y11000D01*
X16717Y11045D01*
X16685Y11085D01*
X16645Y11117D01*
X16600Y11141D01*
X16551Y11156D01*
X16500Y11161D01*
D02*
G37*
G36*
X7954Y11086D02*
X7918Y11082D01*
X7883Y11072D01*
X7851Y11055D01*
X7827Y11035D01*
X7803Y11055D01*
X7771Y11072D01*
X7736Y11082D01*
X7700Y11086D01*
X7664Y11082D01*
X7629Y11072D01*
X7597Y11055D01*
X7569Y11031D01*
X7545Y11003D01*
X7531Y10976D01*
X7523Y10973D01*
X7519Y10973D01*
X7516Y10973D01*
X7497Y10988D01*
X7472Y10998D01*
X7459Y11000D01*
Y10900D01*
Y10800D01*
X7472Y10802D01*
X7497Y10812D01*
X7516Y10827D01*
X7519Y10827D01*
X7523Y10827D01*
X7531Y10824D01*
X7545Y10797D01*
X7569Y10769D01*
X7569Y10768D01*
Y10754D01*
X7446Y10631D01*
X6100D01*
X6066Y10627D01*
X6034Y10614D01*
X6007Y10593D01*
X6007Y10593D01*
X5907Y10493D01*
X5886Y10466D01*
X5873Y10434D01*
X5869Y10400D01*
X5869Y10400D01*
Y9954D01*
X5507Y9593D01*
X5486Y9566D01*
X5473Y9534D01*
X5469Y9500D01*
X5469Y9500D01*
Y9100D01*
X5469Y9100D01*
X5473Y9066D01*
X5486Y9034D01*
X5507Y9007D01*
X5607Y8907D01*
X5607Y8907D01*
X5634Y8886D01*
X5666Y8873D01*
X5700Y8869D01*
X5750D01*
X5756Y8856D01*
X5745Y8843D01*
X5728Y8811D01*
X5718Y8776D01*
X5714Y8740D01*
X5718Y8704D01*
X5728Y8669D01*
X5745Y8637D01*
X5769Y8609D01*
X5797Y8585D01*
X5824Y8571D01*
X5827Y8563D01*
X5827Y8559D01*
X5827Y8556D01*
X5812Y8537D01*
X5802Y8512D01*
X5800Y8499D01*
X5900D01*
X6000D01*
X5998Y8512D01*
X5988Y8537D01*
X5973Y8556D01*
X5973Y8559D01*
X5973Y8563D01*
X5976Y8571D01*
X6003Y8585D01*
X6031Y8609D01*
X6055Y8637D01*
X6072Y8669D01*
X6082Y8704D01*
X6086Y8740D01*
X6082Y8776D01*
X6072Y8811D01*
X6055Y8843D01*
X6035Y8867D01*
X6055Y8891D01*
X6072Y8923D01*
X6082Y8958D01*
X6086Y8994D01*
X6082Y9030D01*
X6075Y9053D01*
X6083Y9063D01*
X6085D01*
Y9123D01*
X6114Y9134D01*
X6141Y9155D01*
X6257Y9272D01*
X6269Y9267D01*
Y7831D01*
X6051D01*
X6035Y7851D01*
X6055Y7875D01*
X6072Y7907D01*
X6082Y7942D01*
X6086Y7978D01*
X6082Y8014D01*
X6072Y8049D01*
X6055Y8081D01*
X6035Y8105D01*
X6055Y8129D01*
X6072Y8161D01*
X6082Y8196D01*
X6086Y8232D01*
X6082Y8268D01*
X6072Y8303D01*
X6055Y8335D01*
X6031Y8363D01*
X6003Y8387D01*
X5976Y8401D01*
X5973Y8409D01*
X5973Y8413D01*
X5973Y8416D01*
X5988Y8435D01*
X5998Y8460D01*
X6000Y8473D01*
X5900D01*
X5800D01*
X5802Y8460D01*
X5812Y8435D01*
X5827Y8416D01*
X5827Y8413D01*
X5827Y8409D01*
X5824Y8401D01*
X5797Y8387D01*
X5769Y8363D01*
X5745Y8335D01*
X5728Y8303D01*
X5718Y8268D01*
X5714Y8232D01*
X5718Y8196D01*
X5728Y8161D01*
X5745Y8129D01*
X5765Y8105D01*
X5745Y8081D01*
X5728Y8049D01*
X5718Y8014D01*
X5714Y7978D01*
X5718Y7942D01*
X5728Y7907D01*
X5745Y7875D01*
X5765Y7851D01*
X5745Y7827D01*
X5728Y7795D01*
X5718Y7760D01*
X5714Y7724D01*
X5718Y7688D01*
X5728Y7653D01*
X5745Y7621D01*
X5752Y7613D01*
X5747Y7601D01*
X5670D01*
X5670Y7601D01*
X5636Y7597D01*
X5604Y7584D01*
X5577Y7563D01*
X5577Y7563D01*
X5307Y7293D01*
X5286Y7266D01*
X5273Y7234D01*
X5269Y7200D01*
X5269Y7200D01*
Y5241D01*
X5253Y5228D01*
X5231Y5200D01*
X5214Y5169D01*
X5204Y5135D01*
X5200Y5100D01*
X5204Y5065D01*
X5214Y5031D01*
X5231Y5000D01*
X5253Y4972D01*
X5280Y4950D01*
X5286Y4934D01*
X5307Y4907D01*
X5323Y4892D01*
X5318Y4880D01*
X5067D01*
X4790Y5156D01*
X4786Y5169D01*
X4769Y5200D01*
X4761Y5211D01*
Y5333D01*
X4814Y5386D01*
X4814Y5386D01*
X4834Y5411D01*
X4849Y5438D01*
X4858Y5469D01*
X4861Y5500D01*
Y5800D01*
X4858Y5831D01*
X4849Y5862D01*
X4834Y5889D01*
X4814Y5914D01*
X4814Y5914D01*
X4714Y6014D01*
X4689Y6034D01*
X4662Y6049D01*
X4631Y6058D01*
X4600Y6061D01*
X4553D01*
X4548Y6072D01*
X4555Y6081D01*
X4572Y6113D01*
X4582Y6148D01*
X4586Y6184D01*
X4582Y6220D01*
X4572Y6255D01*
X4555Y6287D01*
X4535Y6311D01*
X4555Y6335D01*
X4572Y6367D01*
X4582Y6402D01*
X4586Y6438D01*
X4582Y6474D01*
X4572Y6509D01*
X4555Y6541D01*
X4535Y6565D01*
X4555Y6589D01*
X4572Y6621D01*
X4582Y6656D01*
X4586Y6692D01*
X4582Y6728D01*
X4572Y6763D01*
X4555Y6795D01*
X4535Y6819D01*
X4555Y6843D01*
X4572Y6875D01*
X4582Y6910D01*
X4586Y6946D01*
X4582Y6982D01*
X4572Y7017D01*
X4555Y7049D01*
X4535Y7073D01*
X4555Y7097D01*
X4572Y7129D01*
X4582Y7164D01*
X4586Y7200D01*
X4582Y7236D01*
X4572Y7271D01*
X4555Y7303D01*
X4535Y7327D01*
X4555Y7351D01*
X4572Y7383D01*
X4582Y7418D01*
X4586Y7454D01*
X4582Y7490D01*
X4572Y7525D01*
X4555Y7557D01*
X4535Y7581D01*
X4555Y7605D01*
X4572Y7637D01*
X4582Y7672D01*
X4586Y7708D01*
X4582Y7744D01*
X4572Y7779D01*
X4555Y7811D01*
X4535Y7835D01*
X4555Y7859D01*
X4572Y7891D01*
X4582Y7926D01*
X4586Y7962D01*
X4582Y7998D01*
X4572Y8033D01*
X4555Y8065D01*
X4535Y8089D01*
X4555Y8113D01*
X4572Y8145D01*
X4582Y8180D01*
X4586Y8216D01*
X4582Y8252D01*
X4572Y8287D01*
X4566Y8298D01*
X4572Y8309D01*
X4670D01*
X4701Y8312D01*
X4732Y8321D01*
X4759Y8336D01*
X4784Y8356D01*
X5014Y8586D01*
X5034Y8611D01*
X5049Y8638D01*
X5058Y8669D01*
X5061Y8700D01*
X5061Y8700D01*
Y10733D01*
X5067Y10739D01*
X7007D01*
Y10715D01*
X7377D01*
Y10812D01*
X7388Y10818D01*
X7395Y10812D01*
X7420Y10802D01*
X7433Y10800D01*
Y10900D01*
Y11000D01*
X7420Y10998D01*
X7395Y10988D01*
X7388Y10982D01*
X7377Y10988D01*
Y11085D01*
X7007D01*
Y11061D01*
X5000D01*
X4969Y11058D01*
X4938Y11049D01*
X4911Y11034D01*
X4886Y11014D01*
X4886Y11014D01*
X4786Y10914D01*
X4766Y10889D01*
X4751Y10862D01*
X4742Y10831D01*
X4739Y10800D01*
Y8767D01*
X4603Y8631D01*
X4572D01*
X4566Y8642D01*
X4572Y8653D01*
X4582Y8688D01*
X4586Y8724D01*
X4582Y8760D01*
X4572Y8795D01*
X4555Y8827D01*
X4531Y8855D01*
X4503Y8879D01*
X4476Y8893D01*
X4473Y8901D01*
X4473Y8905D01*
X4473Y8908D01*
X4488Y8927D01*
X4498Y8952D01*
X4500Y8965D01*
X4400D01*
X4300D01*
X4302Y8952D01*
X4312Y8927D01*
X4327Y8908D01*
X4327Y8905D01*
X4327Y8901D01*
X4324Y8893D01*
X4297Y8879D01*
X4269Y8855D01*
X4245Y8827D01*
X4228Y8795D01*
X4218Y8760D01*
X4214Y8724D01*
X4218Y8688D01*
X4228Y8653D01*
X4245Y8621D01*
X4265Y8597D01*
X4245Y8573D01*
X4228Y8541D01*
X4218Y8506D01*
X4214Y8470D01*
X4218Y8434D01*
X4228Y8399D01*
X4245Y8367D01*
X4265Y8343D01*
X4245Y8319D01*
X4228Y8287D01*
X4218Y8252D01*
X4214Y8216D01*
X4218Y8180D01*
X4228Y8145D01*
X4245Y8113D01*
X4265Y8089D01*
X4245Y8065D01*
X4228Y8033D01*
X4218Y7998D01*
X4214Y7962D01*
X4218Y7926D01*
X4228Y7891D01*
X4245Y7859D01*
X4265Y7835D01*
X4245Y7811D01*
X4228Y7779D01*
X4218Y7744D01*
X4214Y7708D01*
X4218Y7672D01*
X4228Y7637D01*
X4245Y7605D01*
X4265Y7581D01*
X4245Y7557D01*
X4228Y7525D01*
X4218Y7490D01*
X4214Y7454D01*
X4218Y7418D01*
X4228Y7383D01*
X4245Y7351D01*
X4265Y7327D01*
X4245Y7303D01*
X4228Y7271D01*
X4218Y7236D01*
X4214Y7200D01*
X4218Y7164D01*
X4228Y7129D01*
X4245Y7097D01*
X4265Y7073D01*
X4245Y7049D01*
X4228Y7017D01*
X4218Y6982D01*
X4214Y6946D01*
X4218Y6910D01*
X4228Y6875D01*
X4245Y6843D01*
X4265Y6819D01*
X4245Y6795D01*
X4228Y6763D01*
X4218Y6728D01*
X4214Y6692D01*
X4218Y6656D01*
X4228Y6621D01*
X4245Y6589D01*
X4265Y6565D01*
X4245Y6541D01*
X4228Y6509D01*
X4218Y6474D01*
X4214Y6438D01*
X4218Y6402D01*
X4228Y6367D01*
X4245Y6335D01*
X4265Y6311D01*
X4245Y6287D01*
X4228Y6255D01*
X4218Y6220D01*
X4214Y6184D01*
X4218Y6148D01*
X4228Y6113D01*
X4245Y6081D01*
X4265Y6057D01*
X4245Y6033D01*
X4228Y6001D01*
X4218Y5966D01*
X4214Y5930D01*
X4218Y5894D01*
X4228Y5859D01*
X4245Y5827D01*
X4265Y5803D01*
X4245Y5779D01*
X4228Y5747D01*
X4218Y5712D01*
X4214Y5676D01*
X4218Y5640D01*
X4228Y5605D01*
X4245Y5573D01*
X4269Y5545D01*
X4297Y5521D01*
X4329Y5504D01*
X4364Y5494D01*
X4400Y5490D01*
X4436Y5494D01*
X4459Y5501D01*
X4467Y5490D01*
X4466Y5489D01*
X4451Y5462D01*
X4442Y5431D01*
X4439Y5400D01*
Y5119D01*
X4440Y5115D01*
X4438Y5100D01*
X4442Y5065D01*
X4452Y5031D01*
X4469Y5000D01*
X4491Y4972D01*
X4519Y4950D01*
X4550Y4933D01*
X4563Y4929D01*
X4886Y4605D01*
X4911Y4585D01*
X4938Y4570D01*
X4969Y4561D01*
X5000Y4558D01*
X6319D01*
X6331Y4552D01*
X6365Y4542D01*
X6400Y4538D01*
X6435Y4542D01*
X6469Y4552D01*
X6500Y4569D01*
X6528Y4591D01*
X6550Y4619D01*
X6567Y4650D01*
X6577Y4684D01*
X6581Y4719D01*
X6577Y4754D01*
X6567Y4788D01*
X6593Y4807D01*
X7254Y5469D01*
X11900D01*
X11900Y5469D01*
X11934Y5473D01*
X11966Y5486D01*
X11993Y5507D01*
X12293Y5807D01*
X12293Y5807D01*
X12314Y5834D01*
X12327Y5866D01*
X12331Y5900D01*
Y6646D01*
X13111Y7425D01*
X13122Y7419D01*
X13118Y7404D01*
X13114Y7368D01*
X13118Y7332D01*
X13128Y7297D01*
X13145Y7265D01*
X13165Y7241D01*
X13145Y7217D01*
X13128Y7185D01*
X13118Y7150D01*
X13114Y7114D01*
X13118Y7078D01*
X13128Y7043D01*
X13145Y7011D01*
X13165Y6987D01*
X13145Y6963D01*
X13128Y6931D01*
X13118Y6896D01*
X13114Y6860D01*
X13118Y6824D01*
X13128Y6789D01*
X13145Y6757D01*
X13169Y6729D01*
X13197Y6705D01*
X13224Y6691D01*
X13227Y6683D01*
X13227Y6679D01*
X13227Y6676D01*
X13212Y6657D01*
X13202Y6632D01*
X13200Y6619D01*
X13300D01*
X13400D01*
X13398Y6632D01*
X13388Y6657D01*
X13373Y6676D01*
X13373Y6679D01*
X13373Y6683D01*
X13376Y6691D01*
X13403Y6705D01*
X13431Y6729D01*
X13455Y6757D01*
X13472Y6789D01*
X13482Y6824D01*
X13486Y6860D01*
X13482Y6896D01*
X13472Y6931D01*
X13455Y6963D01*
X13435Y6987D01*
X13455Y7011D01*
X13472Y7043D01*
X13482Y7078D01*
X13486Y7114D01*
X13482Y7150D01*
X13472Y7185D01*
X13455Y7217D01*
X13448Y7225D01*
X13453Y7237D01*
X13568D01*
X13568Y7237D01*
X13602Y7241D01*
X13634Y7254D01*
X13661Y7275D01*
X13793Y7407D01*
X13814Y7434D01*
X13827Y7466D01*
X13831Y7500D01*
Y10000D01*
X13827Y10034D01*
X13814Y10066D01*
X13793Y10093D01*
X13793Y10093D01*
X13493Y10393D01*
X13466Y10414D01*
X13434Y10427D01*
X13400Y10431D01*
X13400Y10431D01*
X8092D01*
X8083Y10441D01*
X8085Y10454D01*
Y10768D01*
X8085Y10769D01*
X8109Y10797D01*
X8126Y10829D01*
X8136Y10864D01*
X8140Y10900D01*
X8136Y10936D01*
X8126Y10971D01*
X8109Y11003D01*
X8085Y11031D01*
X8057Y11055D01*
X8025Y11072D01*
X7990Y11082D01*
X7954Y11086D01*
D02*
G37*
G36*
X3800Y4561D02*
X3749Y4556D01*
X3700Y4541D01*
X3655Y4517D01*
X3615Y4485D01*
X3583Y4445D01*
X3559Y4400D01*
X3544Y4351D01*
X3539Y4300D01*
X3544Y4249D01*
X3559Y4200D01*
X3583Y4155D01*
X3615Y4115D01*
X3655Y4083D01*
X3700Y4059D01*
X3749Y4044D01*
X3800Y4039D01*
X3851Y4044D01*
X3900Y4059D01*
X3945Y4083D01*
X3985Y4115D01*
X4017Y4155D01*
X4041Y4200D01*
X4056Y4249D01*
X4061Y4300D01*
X4056Y4351D01*
X4041Y4400D01*
X4017Y4445D01*
X3985Y4485D01*
X3945Y4517D01*
X3900Y4541D01*
X3851Y4556D01*
X3800Y4561D01*
D02*
G37*
G36*
X16085Y10385D02*
X15715D01*
Y10331D01*
X15500D01*
X15466Y10327D01*
X15434Y10314D01*
X15407Y10293D01*
X14899Y9785D01*
X14878Y9758D01*
X14865Y9726D01*
X14861Y9692D01*
X14861Y9692D01*
Y9586D01*
X14851Y9578D01*
X14836Y9582D01*
X14800Y9586D01*
X14764Y9582D01*
X14729Y9572D01*
X14697Y9555D01*
X14669Y9531D01*
X14645Y9503D01*
X14628Y9471D01*
X14618Y9436D01*
X14614Y9400D01*
X14618Y9364D01*
X14628Y9329D01*
X14634Y9318D01*
X14628Y9307D01*
X14446D01*
X14446Y9307D01*
X14415Y9304D01*
X14384Y9295D01*
X14357Y9280D01*
X14332Y9260D01*
X14332Y9260D01*
X14186Y9114D01*
X14166Y9089D01*
X14151Y9062D01*
X14142Y9031D01*
X14139Y9000D01*
Y6465D01*
X13731Y6057D01*
X13719Y6061D01*
X13717Y6079D01*
X13704Y6111D01*
X13683Y6138D01*
X13683Y6138D01*
X13628Y6193D01*
X13601Y6214D01*
X13570Y6227D01*
X13536Y6231D01*
X13536Y6231D01*
X13455D01*
X13450Y6243D01*
X13455Y6249D01*
X13472Y6281D01*
X13482Y6316D01*
X13486Y6352D01*
X13482Y6388D01*
X13472Y6423D01*
X13455Y6455D01*
X13431Y6483D01*
X13403Y6507D01*
X13376Y6521D01*
X13373Y6529D01*
X13373Y6533D01*
X13373Y6536D01*
X13388Y6555D01*
X13398Y6580D01*
X13400Y6593D01*
X13300D01*
X13200D01*
X13202Y6580D01*
X13212Y6555D01*
X13227Y6536D01*
X13227Y6533D01*
X13227Y6529D01*
X13224Y6521D01*
X13197Y6507D01*
X13169Y6483D01*
X13145Y6455D01*
X13128Y6423D01*
X13118Y6388D01*
X13114Y6352D01*
X13118Y6316D01*
X13128Y6281D01*
X13145Y6249D01*
X13165Y6225D01*
X13145Y6201D01*
X13128Y6169D01*
X13118Y6134D01*
X13114Y6098D01*
X13118Y6062D01*
X13125Y6039D01*
X13117Y6029D01*
X13115D01*
Y5975D01*
X12744D01*
X12710Y5971D01*
X12678Y5958D01*
X12651Y5937D01*
X12651Y5937D01*
X12046Y5331D01*
X11000D01*
X10966Y5327D01*
X10934Y5314D01*
X10907Y5293D01*
X10907Y5293D01*
X10799Y5185D01*
X10778Y5158D01*
X10765Y5126D01*
X10761Y5092D01*
X10751Y5085D01*
X10707D01*
Y4715D01*
X11077D01*
Y4717D01*
X11087Y4725D01*
X11110Y4718D01*
X11146Y4714D01*
X11182Y4718D01*
X11217Y4728D01*
X11249Y4745D01*
X11277Y4769D01*
X11301Y4797D01*
X11315Y4824D01*
X11323Y4827D01*
X11327Y4827D01*
X11330Y4827D01*
X11349Y4812D01*
X11374Y4802D01*
X11387Y4800D01*
Y4900D01*
X11413D01*
Y4800D01*
X11426Y4802D01*
X11451Y4812D01*
X11470Y4827D01*
X11473Y4827D01*
X11477Y4827D01*
X11485Y4824D01*
X11499Y4797D01*
X11523Y4769D01*
X11551Y4745D01*
X11583Y4728D01*
X11618Y4718D01*
X11654Y4714D01*
X11690Y4718D01*
X11725Y4728D01*
X11746Y4739D01*
X13200D01*
X13231Y4742D01*
X13262Y4751D01*
X13289Y4766D01*
X13314Y4786D01*
X13874Y5346D01*
X13874Y5346D01*
X13894Y5371D01*
X13909Y5398D01*
X13918Y5429D01*
X13921Y5460D01*
X13921Y5460D01*
Y5791D01*
X14414Y6284D01*
X14434Y6309D01*
X14449Y6336D01*
X14458Y6367D01*
X14461Y6398D01*
X14461Y6398D01*
Y8164D01*
X14473Y8166D01*
X14486Y8134D01*
X14507Y8107D01*
X14577Y8037D01*
X14577Y8037D01*
X14604Y8016D01*
X14636Y8003D01*
X14649Y8002D01*
X14654Y7990D01*
X14645Y7979D01*
X14628Y7947D01*
X14618Y7912D01*
X14614Y7876D01*
X14618Y7840D01*
X14628Y7805D01*
X14645Y7773D01*
X14665Y7749D01*
X14645Y7725D01*
X14628Y7693D01*
X14618Y7658D01*
X14614Y7622D01*
X14618Y7586D01*
X14628Y7551D01*
X14645Y7519D01*
X14665Y7495D01*
X14645Y7471D01*
X14628Y7439D01*
X14618Y7404D01*
X14614Y7368D01*
X14618Y7332D01*
X14628Y7297D01*
X14645Y7265D01*
X14665Y7241D01*
X14645Y7217D01*
X14628Y7185D01*
X14618Y7150D01*
X14614Y7114D01*
X14618Y7078D01*
X14628Y7043D01*
X14645Y7011D01*
X14665Y6987D01*
X14645Y6963D01*
X14628Y6931D01*
X14618Y6896D01*
X14614Y6860D01*
X14618Y6824D01*
X14628Y6789D01*
X14645Y6757D01*
X14665Y6733D01*
X14645Y6709D01*
X14628Y6677D01*
X14618Y6642D01*
X14614Y6606D01*
X14618Y6570D01*
X14628Y6535D01*
X14645Y6503D01*
X14665Y6479D01*
X14645Y6455D01*
X14628Y6423D01*
X14618Y6388D01*
X14614Y6352D01*
X14618Y6316D01*
X14628Y6281D01*
X14645Y6249D01*
X14669Y6221D01*
X14697Y6197D01*
X14724Y6183D01*
X14727Y6175D01*
X14727Y6171D01*
X14727Y6168D01*
X14712Y6149D01*
X14702Y6124D01*
X14700Y6111D01*
X14800D01*
X14900D01*
X14898Y6124D01*
X14888Y6149D01*
X14873Y6168D01*
X14873Y6171D01*
X14873Y6175D01*
X14876Y6183D01*
X14903Y6197D01*
X14931Y6221D01*
X14955Y6249D01*
X14972Y6281D01*
X14982Y6316D01*
X14986Y6352D01*
X14982Y6388D01*
X14972Y6423D01*
X14966Y6434D01*
X14972Y6445D01*
X15106D01*
X15137Y6448D01*
X15168Y6457D01*
X15195Y6472D01*
X15220Y6492D01*
X15559Y6831D01*
X15808D01*
X15824Y6823D01*
X15827Y6815D01*
X15827Y6811D01*
X15827Y6808D01*
X15812Y6789D01*
X15802Y6764D01*
X15800Y6751D01*
X15900D01*
X16000D01*
X15998Y6764D01*
X15988Y6789D01*
X15973Y6808D01*
X15973Y6811D01*
X15973Y6815D01*
X15976Y6823D01*
X15992Y6831D01*
X16392D01*
X16423Y6834D01*
X16454Y6843D01*
X16481Y6858D01*
X16506Y6878D01*
X16614Y6986D01*
X16634Y7011D01*
X16649Y7038D01*
X16658Y7069D01*
X16661Y7100D01*
Y8300D01*
Y8700D01*
X16661Y8700D01*
X16658Y8731D01*
X16649Y8762D01*
X16634Y8789D01*
X16614Y8814D01*
X16614Y8814D01*
X16114Y9314D01*
X16089Y9334D01*
X16062Y9349D01*
X16031Y9358D01*
X16000Y9361D01*
X15983D01*
X15977Y9373D01*
X15988Y9387D01*
X15998Y9412D01*
X16000Y9425D01*
X15900D01*
X15800D01*
X15802Y9412D01*
X15812Y9387D01*
X15823Y9373D01*
X15817Y9361D01*
X15767D01*
X15661Y9467D01*
Y9531D01*
X15808D01*
X15824Y9523D01*
X15827Y9515D01*
X15827Y9511D01*
X15827Y9508D01*
X15812Y9489D01*
X15802Y9464D01*
X15800Y9451D01*
X15900D01*
X16000D01*
X15998Y9464D01*
X15988Y9489D01*
X15973Y9508D01*
X15973Y9511D01*
X15973Y9515D01*
X15976Y9523D01*
X16003Y9537D01*
X16031Y9561D01*
X16055Y9589D01*
X16072Y9621D01*
X16082Y9656D01*
X16086Y9692D01*
X16082Y9728D01*
X16072Y9763D01*
X16055Y9795D01*
X16035Y9819D01*
X16055Y9843D01*
X16072Y9875D01*
X16082Y9910D01*
X16086Y9946D01*
X16082Y9982D01*
X16075Y10005D01*
X16083Y10015D01*
X16085D01*
Y10385D01*
D02*
G37*
G36*
X3700Y11161D02*
X3649Y11156D01*
X3600Y11141D01*
X3555Y11117D01*
X3515Y11085D01*
X3483Y11045D01*
X3459Y11000D01*
X3444Y10951D01*
X3439Y10900D01*
X3444Y10849D01*
X3459Y10800D01*
X3483Y10755D01*
X3515Y10715D01*
X3555Y10683D01*
X3600Y10659D01*
X3649Y10644D01*
X3700Y10639D01*
X3751Y10644D01*
X3800Y10659D01*
X3845Y10683D01*
X3885Y10715D01*
X3917Y10755D01*
X3941Y10800D01*
X3956Y10849D01*
X3961Y10900D01*
X3956Y10951D01*
X3941Y11000D01*
X3917Y11045D01*
X3885Y11085D01*
X3845Y11117D01*
X3800Y11141D01*
X3751Y11156D01*
X3700Y11161D01*
D02*
G37*
%LPD*%
G36*
X13569Y9946D02*
Y7554D01*
X13514Y7499D01*
X13453D01*
X13448Y7511D01*
X13455Y7519D01*
X13472Y7551D01*
X13482Y7586D01*
X13486Y7622D01*
X13482Y7658D01*
X13472Y7693D01*
X13455Y7725D01*
X13435Y7749D01*
X13455Y7773D01*
X13472Y7805D01*
X13482Y7840D01*
X13486Y7876D01*
X13482Y7912D01*
X13472Y7947D01*
X13455Y7979D01*
X13435Y8003D01*
X13455Y8027D01*
X13472Y8059D01*
X13482Y8094D01*
X13486Y8130D01*
X13482Y8166D01*
X13472Y8201D01*
X13455Y8233D01*
X13435Y8257D01*
X13455Y8281D01*
X13472Y8313D01*
X13482Y8348D01*
X13486Y8384D01*
X13482Y8420D01*
X13472Y8455D01*
X13455Y8487D01*
X13435Y8511D01*
X13455Y8535D01*
X13472Y8567D01*
X13482Y8602D01*
X13486Y8638D01*
X13482Y8674D01*
X13472Y8709D01*
X13455Y8741D01*
X13435Y8765D01*
X13455Y8789D01*
X13472Y8821D01*
X13482Y8856D01*
X13486Y8892D01*
X13482Y8928D01*
X13472Y8963D01*
X13455Y8995D01*
X13435Y9019D01*
X13455Y9043D01*
X13472Y9075D01*
X13482Y9110D01*
X13486Y9146D01*
X13482Y9182D01*
X13472Y9217D01*
X13455Y9249D01*
X13435Y9273D01*
X13455Y9297D01*
X13472Y9329D01*
X13482Y9364D01*
X13486Y9400D01*
X13482Y9436D01*
X13472Y9471D01*
X13455Y9503D01*
X13431Y9531D01*
X13403Y9555D01*
X13371Y9572D01*
X13336Y9582D01*
X13300Y9586D01*
X13264Y9582D01*
X13229Y9572D01*
X13197Y9555D01*
X13169Y9531D01*
X13145Y9503D01*
X13128Y9471D01*
X13118Y9436D01*
X13114Y9400D01*
X13118Y9364D01*
X13128Y9329D01*
X13145Y9297D01*
X13165Y9273D01*
X13145Y9249D01*
X13128Y9217D01*
X13118Y9182D01*
X13114Y9146D01*
X13118Y9110D01*
X13128Y9075D01*
X13145Y9043D01*
X13165Y9019D01*
X13145Y8995D01*
X13128Y8963D01*
X13118Y8928D01*
X13114Y8892D01*
X13118Y8856D01*
X13128Y8821D01*
X13145Y8789D01*
X13165Y8765D01*
X13145Y8741D01*
X13128Y8709D01*
X13118Y8674D01*
X13114Y8638D01*
X13118Y8602D01*
X13128Y8567D01*
X13145Y8535D01*
X13165Y8511D01*
X13145Y8487D01*
X13128Y8455D01*
X13118Y8420D01*
X13114Y8384D01*
X13118Y8348D01*
X13128Y8313D01*
X13145Y8281D01*
X13165Y8257D01*
X13145Y8233D01*
X13128Y8201D01*
X13118Y8166D01*
X13114Y8130D01*
X13118Y8094D01*
X13128Y8059D01*
X13145Y8027D01*
X13165Y8003D01*
X13145Y7979D01*
X13128Y7947D01*
X13118Y7912D01*
X13114Y7876D01*
X13118Y7840D01*
X13128Y7805D01*
X13145Y7773D01*
X13152Y7765D01*
X13147Y7753D01*
X13122D01*
X13122Y7753D01*
X13088Y7749D01*
X13056Y7736D01*
X13029Y7715D01*
X12107Y6793D01*
X12086Y6766D01*
X12073Y6734D01*
X12069Y6700D01*
X12069Y6700D01*
Y5954D01*
X11846Y5731D01*
X11611D01*
Y10000D01*
X11607Y10029D01*
X11596Y10055D01*
X11578Y10078D01*
X11555Y10096D01*
X11529Y10107D01*
X11500Y10111D01*
X6800D01*
X6771Y10107D01*
X6745Y10096D01*
X6722Y10078D01*
X6704Y10055D01*
X6693Y10029D01*
X6689Y10000D01*
Y5700D01*
X6693Y5671D01*
X6704Y5645D01*
X6722Y5622D01*
X6745Y5604D01*
X6771Y5593D01*
X6800Y5589D01*
X6987D01*
X6992Y5577D01*
X6446Y5031D01*
X5561D01*
X5552Y5043D01*
X5558Y5065D01*
X5562Y5100D01*
X5558Y5135D01*
X5548Y5169D01*
X5531Y5200D01*
X5531Y5201D01*
Y7146D01*
X5724Y7339D01*
X5747D01*
X5752Y7327D01*
X5745Y7319D01*
X5728Y7287D01*
X5718Y7252D01*
X5714Y7216D01*
X5718Y7180D01*
X5728Y7145D01*
X5745Y7113D01*
X5765Y7089D01*
X5745Y7065D01*
X5728Y7033D01*
X5718Y6998D01*
X5714Y6962D01*
X5718Y6926D01*
X5728Y6891D01*
X5745Y6859D01*
X5765Y6835D01*
X5745Y6811D01*
X5728Y6779D01*
X5718Y6744D01*
X5714Y6708D01*
X5718Y6672D01*
X5728Y6637D01*
X5745Y6605D01*
X5765Y6581D01*
X5745Y6557D01*
X5728Y6525D01*
X5718Y6490D01*
X5714Y6454D01*
X5718Y6418D01*
X5728Y6383D01*
X5745Y6351D01*
X5765Y6327D01*
X5745Y6303D01*
X5728Y6271D01*
X5718Y6236D01*
X5714Y6200D01*
X5718Y6164D01*
X5728Y6129D01*
X5745Y6097D01*
X5765Y6073D01*
X5745Y6049D01*
X5728Y6017D01*
X5718Y5982D01*
X5714Y5946D01*
X5718Y5910D01*
X5728Y5875D01*
X5745Y5843D01*
X5765Y5819D01*
X5745Y5795D01*
X5728Y5763D01*
X5718Y5728D01*
X5714Y5692D01*
X5718Y5656D01*
X5728Y5621D01*
X5745Y5589D01*
X5769Y5561D01*
X5797Y5537D01*
X5829Y5520D01*
X5864Y5510D01*
X5900Y5506D01*
X5936Y5510D01*
X5971Y5520D01*
X6003Y5537D01*
X6031Y5561D01*
X6055Y5589D01*
X6072Y5621D01*
X6082Y5656D01*
X6086Y5692D01*
X6082Y5728D01*
X6072Y5763D01*
X6055Y5795D01*
X6035Y5819D01*
X6055Y5843D01*
X6072Y5875D01*
X6082Y5910D01*
X6086Y5946D01*
X6082Y5982D01*
X6072Y6017D01*
X6055Y6049D01*
X6035Y6073D01*
X6055Y6097D01*
X6072Y6129D01*
X6082Y6164D01*
X6086Y6200D01*
X6082Y6236D01*
X6072Y6271D01*
X6055Y6303D01*
X6035Y6327D01*
X6055Y6351D01*
X6072Y6383D01*
X6082Y6418D01*
X6086Y6454D01*
X6082Y6490D01*
X6072Y6525D01*
X6055Y6557D01*
X6035Y6581D01*
X6055Y6605D01*
X6072Y6637D01*
X6082Y6672D01*
X6086Y6708D01*
X6082Y6744D01*
X6072Y6779D01*
X6055Y6811D01*
X6035Y6835D01*
X6055Y6859D01*
X6072Y6891D01*
X6082Y6926D01*
X6086Y6962D01*
X6082Y6998D01*
X6072Y7033D01*
X6055Y7065D01*
X6035Y7089D01*
X6055Y7113D01*
X6072Y7145D01*
X6082Y7180D01*
X6086Y7216D01*
X6082Y7252D01*
X6072Y7287D01*
X6055Y7319D01*
X6035Y7343D01*
X6055Y7367D01*
X6072Y7399D01*
X6082Y7434D01*
X6086Y7470D01*
X6082Y7506D01*
X6072Y7541D01*
X6063Y7558D01*
X6069Y7569D01*
X6269D01*
Y5605D01*
X6250Y5581D01*
X6233Y5550D01*
X6223Y5516D01*
X6219Y5481D01*
X6223Y5446D01*
X6233Y5412D01*
X6250Y5381D01*
X6272Y5353D01*
X6300Y5331D01*
X6331Y5314D01*
X6365Y5304D01*
X6400Y5300D01*
X6435Y5304D01*
X6469Y5314D01*
X6500Y5331D01*
X6528Y5353D01*
X6550Y5381D01*
X6567Y5412D01*
X6577Y5446D01*
X6581Y5481D01*
X6577Y5516D01*
X6567Y5550D01*
X6550Y5581D01*
X6531Y5605D01*
Y7700D01*
Y10146D01*
X6554Y10169D01*
X13346D01*
X13569Y9946D01*
D02*
G37*
G36*
X6069Y9767D02*
Y9454D01*
X6048Y9433D01*
X5731D01*
X5731Y9446D01*
X6057Y9772D01*
X6069Y9767D01*
D02*
G37*
%LPC*%
G36*
X12200Y8811D02*
X11900D01*
X11871Y8807D01*
X11845Y8796D01*
X11822Y8778D01*
X11804Y8755D01*
X11793Y8729D01*
X11789Y8700D01*
Y7200D01*
X11793Y7171D01*
X11804Y7145D01*
X11822Y7122D01*
X11845Y7104D01*
X11871Y7093D01*
X11900Y7089D01*
X12200D01*
X12229Y7093D01*
X12255Y7104D01*
X12278Y7122D01*
X12296Y7145D01*
X12307Y7171D01*
X12311Y7200D01*
Y8700D01*
X12307Y8729D01*
X12296Y8755D01*
X12278Y8778D01*
X12255Y8796D01*
X12229Y8807D01*
X12200Y8811D01*
D02*
G37*
%LPD*%
G36*
X13233Y5160D02*
X13133Y5061D01*
X12663D01*
X12658Y5073D01*
X12754Y5169D01*
X13200D01*
X13200Y5169D01*
X13227Y5172D01*
X13233Y5160D01*
D02*
G37*
G36*
X13115Y5659D02*
X13357D01*
X13362Y5647D01*
X13146Y5431D01*
X12700D01*
X12700Y5431D01*
X12666Y5427D01*
X12634Y5414D01*
X12607Y5393D01*
X12607Y5393D01*
X12446Y5231D01*
X12333D01*
X12328Y5243D01*
X12798Y5713D01*
X13115D01*
Y5659D01*
D02*
G37*
G36*
X16339Y8633D02*
Y8461D01*
X16077D01*
X16070Y8472D01*
X16072Y8475D01*
X16082Y8510D01*
X16086Y8546D01*
X16082Y8582D01*
X16075Y8605D01*
X16083Y8615D01*
X16085D01*
Y8871D01*
X16097Y8876D01*
X16339Y8633D01*
D02*
G37*
G36*
X15715Y10015D02*
X15717D01*
X15725Y10005D01*
X15718Y9982D01*
X15714Y9946D01*
X15718Y9910D01*
X15728Y9875D01*
X15734Y9864D01*
X15728Y9853D01*
X15592D01*
X15592Y9853D01*
X15561Y9850D01*
X15530Y9841D01*
X15503Y9826D01*
X15478Y9806D01*
X15386Y9714D01*
X15366Y9689D01*
X15351Y9662D01*
X15342Y9631D01*
X15339Y9600D01*
Y9400D01*
X15342Y9369D01*
X15351Y9338D01*
X15366Y9311D01*
X15386Y9286D01*
X15586Y9086D01*
X15586Y9086D01*
X15611Y9066D01*
X15638Y9051D01*
X15669Y9042D01*
X15700Y9039D01*
X15700Y9039D01*
X15933D01*
X15976Y8997D01*
X15971Y8985D01*
X15715D01*
Y8931D01*
X15200D01*
X15200Y8931D01*
X15166Y8927D01*
X15134Y8914D01*
X15107Y8893D01*
X15107Y8893D01*
X14984Y8769D01*
X14932D01*
X14931Y8769D01*
X14916Y8782D01*
X14934Y8803D01*
X14949Y8830D01*
X14958Y8861D01*
X14961Y8892D01*
X14958Y8923D01*
X14957Y8926D01*
X15085Y9054D01*
X15085Y9054D01*
X15106Y9082D01*
X15119Y9113D01*
X15123Y9147D01*
X15123Y9147D01*
Y9638D01*
X15554Y10069D01*
X15715D01*
Y10015D01*
D02*
G37*
G36*
X15069Y8146D02*
Y7800D01*
X15069Y7800D01*
X15073Y7766D01*
X15086Y7734D01*
X15107Y7707D01*
X15407Y7407D01*
X15407Y7407D01*
X15434Y7386D01*
X15466Y7373D01*
X15500Y7369D01*
X15715D01*
Y7315D01*
X15717D01*
X15725Y7305D01*
X15718Y7282D01*
X15714Y7246D01*
X15718Y7210D01*
X15728Y7175D01*
X15734Y7164D01*
X15728Y7153D01*
X15492D01*
X15492Y7153D01*
X15461Y7150D01*
X15430Y7141D01*
X15403Y7126D01*
X15378Y7106D01*
X15039Y6767D01*
X14972D01*
X14966Y6778D01*
X14972Y6789D01*
X14982Y6824D01*
X14986Y6860D01*
X14982Y6896D01*
X14972Y6931D01*
X14955Y6963D01*
X14935Y6987D01*
X14955Y7011D01*
X14972Y7043D01*
X14982Y7078D01*
X14986Y7114D01*
X14982Y7150D01*
X14972Y7185D01*
X14955Y7217D01*
X14935Y7241D01*
X14955Y7265D01*
X14972Y7297D01*
X14982Y7332D01*
X14986Y7368D01*
X14982Y7404D01*
X14972Y7439D01*
X14955Y7471D01*
X14935Y7495D01*
X14955Y7519D01*
X14972Y7551D01*
X14982Y7586D01*
X14986Y7622D01*
X14982Y7658D01*
X14972Y7693D01*
X14955Y7725D01*
X14935Y7749D01*
X14955Y7773D01*
X14972Y7805D01*
X14982Y7840D01*
X14986Y7876D01*
X14982Y7912D01*
X14972Y7947D01*
X14955Y7979D01*
X14935Y8003D01*
X14955Y8027D01*
X14972Y8059D01*
X14982Y8094D01*
X14986Y8130D01*
X14982Y8166D01*
X14972Y8201D01*
X14955Y8233D01*
X14953Y8235D01*
X14958Y8249D01*
X14965Y8250D01*
X15069Y8146D01*
D02*
G37*
G36*
X15715Y8615D02*
X15717D01*
X15725Y8605D01*
X15718Y8582D01*
X15714Y8546D01*
X15718Y8510D01*
X15728Y8475D01*
X15745Y8443D01*
X15765Y8419D01*
X15745Y8395D01*
X15728Y8363D01*
X15718Y8328D01*
X15714Y8292D01*
X15718Y8256D01*
X15728Y8221D01*
X15745Y8189D01*
X15769Y8161D01*
X15797Y8137D01*
X15824Y8123D01*
X15827Y8115D01*
X15827Y8111D01*
X15827Y8108D01*
X15812Y8089D01*
X15802Y8064D01*
X15800Y8051D01*
X15900D01*
X16000D01*
X15998Y8064D01*
X15988Y8089D01*
X15973Y8108D01*
X15973Y8111D01*
X15973Y8115D01*
X15976Y8123D01*
X16003Y8137D01*
X16005Y8139D01*
X16339D01*
Y7167D01*
X16325Y7153D01*
X16072D01*
X16066Y7164D01*
X16072Y7175D01*
X16082Y7210D01*
X16086Y7246D01*
X16082Y7282D01*
X16075Y7305D01*
X16083Y7315D01*
X16085D01*
Y7685D01*
X15715D01*
Y7631D01*
X15554D01*
X15331Y7854D01*
Y8200D01*
X15331Y8200D01*
X15327Y8234D01*
X15314Y8266D01*
X15293Y8293D01*
X15109Y8477D01*
X15082Y8498D01*
X15077Y8500D01*
X15077Y8513D01*
X15104Y8524D01*
X15131Y8545D01*
X15254Y8669D01*
X15715D01*
Y8615D01*
D02*
G37*
%LPC*%
G36*
X15887Y8025D02*
X15800D01*
X15802Y8012D01*
X15812Y7987D01*
X15828Y7966D01*
X15849Y7950D01*
X15874Y7940D01*
X15887Y7938D01*
Y8025D01*
D02*
G37*
G36*
X16000D02*
X15913D01*
Y7938D01*
X15926Y7940D01*
X15951Y7950D01*
X15972Y7966D01*
X15988Y7987D01*
X15998Y8012D01*
X16000Y8025D01*
D02*
G37*
%LPD*%
D10*
X14992Y9147D02*
Y9692D01*
X15500Y10200D01*
X15900D01*
X7700Y10700D02*
Y10900D01*
X7500Y10500D02*
X7700Y10700D01*
X6100Y10500D02*
X7500D01*
X6000Y10400D02*
X6100Y10500D01*
X6000Y9900D02*
Y10400D01*
X5600Y9500D02*
X6000Y9900D01*
X5600Y9100D02*
Y9500D01*
Y9100D02*
X5700Y9000D01*
X5894D01*
X5900Y8994D01*
Y9248D02*
X6048D01*
X6200Y9400D01*
Y10200D01*
X6300Y10300D01*
Y10300D01*
X6400Y10400D01*
X7900D01*
X7954Y10454D01*
Y10900D01*
X11100Y4946D02*
X11146Y4900D01*
X11100Y4946D02*
Y5000D01*
X11200Y5100D01*
X12500D01*
X10892Y4900D02*
Y5092D01*
X11000Y5200D01*
X12100D01*
X11900Y5600D02*
X12200Y5900D01*
X7200Y5600D02*
X11900D01*
X6500Y4900D02*
X7200Y5600D01*
X14200Y4800D02*
Y4892D01*
Y4500D02*
Y4800D01*
X15400D01*
X15438Y4838D01*
X15900D01*
X14192Y4900D02*
X14200Y4892D01*
X14192Y4900D02*
Y5192D01*
X15200Y8800D02*
X15900D01*
X15038Y8638D02*
X15200Y8800D01*
X14800Y8638D02*
X15038D01*
X15500Y7500D02*
X15900D01*
X15200Y7800D02*
X15500Y7500D01*
X15200Y7800D02*
Y8200D01*
X14670Y8130D02*
X14800D01*
X14600Y8200D02*
X14670Y8130D01*
X14600Y8200D02*
Y8800D01*
X14690Y8890D01*
Y8938D01*
X14754Y9002D01*
X14847D01*
X14992Y9147D01*
X6400Y5481D02*
X6400Y5481D01*
X12700Y5300D02*
X13200D01*
X12500Y5100D02*
X12700Y5300D01*
X4600Y4200D02*
X13900D01*
X3500Y5300D02*
X4600Y4200D01*
X3500Y5300D02*
Y8800D01*
X5400Y5000D02*
X5500Y4900D01*
X13590Y5690D02*
Y6046D01*
X13200Y5300D02*
X13590Y5690D01*
X11500Y0D02*
X15100D01*
X14800Y5844D02*
X14800Y5844D01*
X14800Y5500D02*
Y5844D01*
X14600Y5300D02*
X14800Y5500D01*
X14300Y5300D02*
X14600D01*
X14192Y5192D02*
X14300Y5300D01*
X14784Y8400D02*
X14800Y8384D01*
X15016D01*
X15200Y8200D01*
X5670Y7470D02*
X5900D01*
X5400Y7200D02*
X5670Y7470D01*
X5381Y5100D02*
X5400Y5119D01*
Y7200D01*
X5900Y7724D02*
X5924Y7700D01*
X5381Y5100D02*
X5400Y5081D01*
X6500Y10300D02*
X13400D01*
X13700Y10000D01*
Y7500D02*
Y10000D01*
X13568Y7368D02*
X13700Y7500D01*
X13300Y7368D02*
X13568D01*
X5400Y5000D02*
Y5081D01*
X3932Y9232D02*
X4400D01*
X3500Y8800D02*
X3932Y9232D01*
X13900Y4200D02*
X14200Y4500D01*
X6400Y10200D02*
X6500Y10300D01*
X5924Y7700D02*
X6400D01*
Y5481D02*
Y7700D01*
Y10200D01*
X13536Y6100D02*
X13590Y6046D01*
X13302Y6100D02*
X13536D01*
X13300Y6098D02*
X13302Y6100D01*
X12100Y5200D02*
X12744Y5844D01*
X13300D01*
X5500Y4900D02*
X6500D01*
X12200Y6700D02*
X13122Y7622D01*
X13300D01*
X12200Y5900D02*
Y6700D01*
D11*
X15900Y9438D02*
X15938Y9400D01*
X16500D01*
X16700Y9200D01*
Y6700D02*
Y9200D01*
X15592Y9692D02*
X15900D01*
X15500Y9600D02*
X15592Y9692D01*
X15500Y9400D02*
Y9600D01*
Y9400D02*
X15700Y9200D01*
X16000D01*
X16500Y8700D01*
X4900D02*
Y10800D01*
X5000Y10900D01*
X7192D01*
X7446D02*
Y11154D01*
X7400Y11200D02*
X7446Y11154D01*
X5000Y11200D02*
X7400D01*
X4700Y10900D02*
X5000Y11200D01*
X4700Y9100D02*
Y10900D01*
X4578Y8978D02*
X4700Y9100D01*
X4400Y8978D02*
X4578D01*
X5886Y8500D02*
X5900Y8486D01*
X5600Y8500D02*
X5886D01*
X5400Y8700D02*
X5600Y8500D01*
X5400Y8700D02*
Y10100D01*
X6000Y10700D01*
X7400D01*
X7446Y10746D01*
Y10900D01*
X11654Y4900D02*
X13200D01*
X11400Y4500D02*
X13500D01*
X10100D02*
X11400D01*
Y4900D01*
X10290Y5390D02*
X11990D01*
X10100Y5200D02*
X10290Y5390D01*
X10100Y4500D02*
Y5200D01*
X11990Y5390D02*
X12400Y5800D01*
X15600Y6400D02*
X15900D01*
X15102D02*
X15600D01*
Y5900D02*
Y6400D01*
Y5900D02*
X15646Y5854D01*
X15900D01*
X15900Y6400D02*
X16400D01*
X16700Y6700D01*
X15900Y6400D02*
Y6738D01*
X14800Y6098D02*
X15102Y6400D01*
X16500Y8300D02*
Y8700D01*
Y7100D02*
Y8300D01*
X15900Y6992D02*
X16392D01*
X16500Y7100D01*
X15908Y8300D02*
X16500D01*
X15900Y8292D02*
X15908Y8300D01*
X14800Y6606D02*
X15106D01*
X15492Y6992D01*
X15900D01*
X4700Y4500D02*
X10100D01*
X5000Y4719D02*
X6400D01*
X4619Y5100D02*
X5000Y4719D01*
X3800Y5400D02*
X4700Y4500D01*
X3800Y5400D02*
Y8500D01*
X4600Y5119D02*
X4619Y5100D01*
X4600Y5119D02*
Y5400D01*
X4700Y5500D01*
Y5800D01*
X4600Y5900D02*
X4700Y5800D01*
X4430Y5900D02*
X4600D01*
X4400Y5930D02*
X4430Y5900D01*
X13760Y5460D02*
Y5858D01*
X13200Y4900D02*
X13760Y5460D01*
X14598Y6098D02*
X14800D01*
X13900Y5400D02*
X14598Y6098D01*
X13900Y4900D02*
Y5400D01*
X13760Y5858D02*
X14300Y6398D01*
X14800Y6606D02*
X14806Y6600D01*
X4278Y8978D02*
X4400D01*
X3800Y8500D02*
X4278Y8978D01*
X4400Y8470D02*
X4670D01*
X4900Y8700D01*
X13500Y4500D02*
X13700Y4700D01*
Y4700D01*
X13900Y4900D01*
X12506Y6606D02*
X13300D01*
X12500Y6600D02*
X12506Y6606D01*
X12500Y6600D02*
Y6600D01*
X12400Y6500D02*
X12500Y6600D01*
X14446Y9146D02*
X14800D01*
X14300Y9000D02*
X14446Y9146D01*
X14300Y6398D02*
Y9000D01*
X12400Y5800D02*
Y6500D01*
D12*
X10892Y4900D02*
D03*
X7192Y10900D02*
D03*
D13*
X11146Y4900D02*
D03*
X11400D02*
D03*
X11654D02*
D03*
X15900Y9438D02*
D03*
Y9692D02*
D03*
Y9946D02*
D03*
X7954Y10900D02*
D03*
X7700D02*
D03*
X7446D02*
D03*
X4400Y5676D02*
D03*
Y5930D02*
D03*
Y6184D02*
D03*
Y6438D02*
D03*
Y6692D02*
D03*
Y6946D02*
D03*
Y7200D02*
D03*
Y7454D02*
D03*
Y7708D02*
D03*
Y7962D02*
D03*
Y8216D02*
D03*
Y8470D02*
D03*
Y8724D02*
D03*
Y8978D02*
D03*
X5900Y5692D02*
D03*
Y5946D02*
D03*
Y6200D02*
D03*
Y6454D02*
D03*
Y6708D02*
D03*
Y6962D02*
D03*
Y7216D02*
D03*
Y7470D02*
D03*
Y7724D02*
D03*
Y7978D02*
D03*
Y8232D02*
D03*
Y8486D02*
D03*
Y8740D02*
D03*
Y8994D02*
D03*
X14800Y9400D02*
D03*
Y9146D02*
D03*
Y8638D02*
D03*
Y8384D02*
D03*
Y8130D02*
D03*
Y7876D02*
D03*
Y7622D02*
D03*
Y7368D02*
D03*
Y7114D02*
D03*
Y6860D02*
D03*
Y6606D02*
D03*
Y6352D02*
D03*
Y6098D02*
D03*
X13300Y9400D02*
D03*
Y9146D02*
D03*
Y8892D02*
D03*
Y8638D02*
D03*
Y8384D02*
D03*
Y8130D02*
D03*
Y7876D02*
D03*
Y7622D02*
D03*
Y7368D02*
D03*
Y7114D02*
D03*
Y6860D02*
D03*
Y6606D02*
D03*
Y6352D02*
D03*
Y6098D02*
D03*
X15900Y4838D02*
D03*
Y5092D02*
D03*
Y5346D02*
D03*
Y5600D02*
D03*
X15900Y6738D02*
D03*
Y6992D02*
D03*
Y7246D02*
D03*
X15900Y8038D02*
D03*
Y8292D02*
D03*
Y8546D02*
D03*
D14*
X15900Y10200D02*
D03*
X4400Y9232D02*
D03*
X5900Y9248D02*
D03*
X14800Y5844D02*
D03*
X13300D02*
D03*
X15900Y5854D02*
D03*
X15900Y7500D02*
D03*
X15900Y8800D02*
D03*
D15*
X14800Y8892D02*
D03*
D16*
X6400Y5481D02*
D03*
Y4719D02*
D03*
X5381Y5100D02*
D03*
X4619D02*
D03*
D17*
X3800Y4300D02*
D03*
X9500Y4900D02*
D03*
X16500Y4300D02*
D03*
Y10900D02*
D03*
X12100D02*
D03*
X3700D02*
D03*
M02*
